<svg viewBox="-3 0 511 512" xmlns="http://www.w3.org/2000/svg" fill="#C7CBF2"><path d="m448.039062 118.152344h-390.964843c-8.9375 0-16.207031 7.269531-16.207031 16.203125v311.214843c0 8.941407 7.273437 16.214844 16.214843 16.214844h390.96875c8.933594 0 16.203125-7.269531 16.203125-16.203125v-311.214843c0-8.941407-7.273437-16.214844-16.214844-16.214844zm-3.476562 19.695312v213.988282l-20.546875-27.394532c-3.265625-4.351562-9.433594-5.230468-13.785156-1.96875-4.351563 3.261719-5.230469 9.433594-1.96875 13.785156l12.914062 17.21875h-226.460937l14.769531-19.691406h72.617187c5.4375 0 9.84375-4.40625 9.84375-9.84375s-4.40625-9.847656-9.84375-9.847656h-57.847656l2.996094-3.996094c.03125-.039062.0625-.082031.09375-.121094l10.941406-14.589843h47.753906c5.4375 0 9.847657-4.410157 9.847657-9.847657s-4.410157-9.84375-9.847657-9.84375h-32.984374l14.769531-19.695312h80.246093l12.101563 16.140625c3.265625 4.347656 9.4375 5.230469 13.785156 1.96875 4.351563-3.265625 5.234375-9.433594 1.96875-13.785156l-60.101562-80.140625c-1.859375-2.476563-4.777344-3.9375-7.878907-3.9375-3.097656 0-6.015624 1.460937-7.875 3.9375l-80.742187 107.65625-47.503906-63.347656c-1.859375-2.480469-4.777344-3.9375-7.878907-3.9375-3.097656 0-6.019531 1.457031-7.878906 3.9375l-95.503906 127.34375v-213.988282zm-360.617188 215.628906 43.570313-58.089843h25.597656c5.4375 0 9.847657-4.410157 9.847657-9.847657s-4.410157-9.847656-9.847657-9.847656h-10.828125l21.660156-28.878906 43.074219 57.4375-9.28125 12.375c-.949219.855469-1.730469 1.890625-2.289062 3.054688l-25.347657 33.796874zm198.648438-117.167968 25.351562-33.804688 25.355469 33.804688zm-222.03125 205.785156v-68.925781h3.671875.011719.007812 110.746094.015625.007813 265.84375.007812.011719 3.671875v68.921875h-383.996094zm0 0"/><path d="m471.292969 0h-437.464844c-18.375 0-33.328125 13.472656-33.328125 30.03125v451.9375c0 16.558594 14.953125 30.03125 33.328125 30.03125h437.464844c18.378906 0 33.328125-13.472656 33.328125-30.03125v-451.9375c0-16.558594-14.949219-30.03125-33.328125-30.03125zm-437.464844 19.691406h437.464844c7.394531 0 13.636719 4.734375 13.636719 10.339844v47.753906h-464.738282v-47.753906c0-5.605469 6.246094-10.339844 13.636719-10.339844zm437.464844 472.617188h-437.464844c-7.390625 0-13.636719-4.734375-13.636719-10.339844v-384.492188h464.738282v384.492188c0 5.605469-6.242188 10.339844-13.636719 10.339844zm0 0"/><path d="m188.5625 59.078125h256c5.4375 0 9.84375-4.410156 9.84375-9.847656s-4.40625-9.84375-9.84375-9.84375h-256c-5.4375 0-9.847656 4.40625-9.847656 9.84375s4.410156 9.847656 9.847656 9.847656zm0 0"/><path d="m50.8125 53.324219c.246094.59375.550781 1.164062.90625 1.695312.355469.539063.769531 1.042969 1.21875 1.507813.453125.449218.957031.855468 1.5 1.21875.53125.355468 1.109375.660156 1.703125.90625.589844.246094 1.210937.433594 1.839844.5625.632812.128906 1.28125.1875 1.921875.1875s1.289062-.058594 1.929687-.1875c.628907-.128906 1.238281-.316406 1.839844-.5625.589844-.246094 1.164063-.550782 1.695313-.90625.539062-.363282 1.042968-.769532 1.496093-1.21875.453125-.464844.867188-.96875 1.230469-1.507813.355469-.53125.660156-1.101562.90625-1.695312.246094-.597657.429688-1.21875.558594-1.839844.128906-.640625.1875-1.289063.1875-1.929687 0-2.589844-1.042969-5.128907-2.882813-6.960938-.453125-.453125-.957031-.867188-1.496093-1.21875-.535157-.355469-1.105469-.660156-1.695313-.90625-.601563-.246094-1.210937-.433594-1.839844-.5625-1.269531-.253906-2.582031-.253906-3.851562 0-.628907.128906-1.25.316406-1.839844.5625s-1.171875.550781-1.703125.90625c-.542969.351562-1.042969.765625-1.496094 1.21875-1.832031 1.832031-2.886718 4.371094-2.886718 6.960938 0 .640624.070312 1.289062.199218 1.929687.125.621094.3125 1.242187.558594 1.839844zm0 0"/><path d="m90.199219 53.324219c.246093.59375.550781 1.164062.90625 1.695312.351562.539063.765625 1.042969 1.21875 1.507813.453125.449218.953125.855468 1.496093 1.21875.53125.355468 1.113282.660156 1.703126.90625.59375.246094 1.210937.433594 1.84375.5625.628906.128906 1.277343.1875 1.917968.1875 2.601563 0 5.128906-1.042969 6.960938-2.875.453125-.464844.867187-.964844 1.230468-1.507813.355469-.53125.660157-1.101562.90625-1.691406.246094-.601563.433594-1.222656.5625-1.839844.128907-.640625.1875-1.292969.1875-1.933593 0-2.589844-1.042968-5.128907-2.886718-6.960938-2.28125-2.28125-5.679688-3.335938-8.878906-2.6875-.632813.128906-1.25.316406-1.84375.5625-.589844.246094-1.171876.550781-1.703126.90625-.539062.351562-1.042968.765625-1.496093 1.21875-1.832031 1.832031-2.882813 4.371094-2.882813 6.960938 0 .640624.066406 1.289062.195313 1.929687.128906.621094.316406 1.242187.5625 1.839844zm0 0"/><path d="m129.582031 53.324219c.246094.59375.550781 1.164062.90625 1.695312.355469.539063.765625 1.042969 1.21875 1.507813.453125.449218.957031.855468 1.5 1.21875.53125.355468 1.109375.660156 1.703125.90625.589844.246094 1.210938.433594 1.839844.5625s1.28125.1875 1.917969.1875c2.601562 0 5.132812-1.042969 6.964843-2.875.453126-.464844.867188-.964844 1.230469-1.507813.351563-.53125.65625-1.101562.90625-1.691406.246094-.601563.429688-1.222656.558594-1.839844.128906-.640625.1875-1.292969.1875-1.933593 0-2.589844-1.042969-5.128907-2.882813-6.960938-2.285156-2.28125-5.683593-3.335938-8.882812-2.6875-.628906.128906-1.25.316406-1.839844.5625-.59375.246094-1.171875.550781-1.703125.90625-.542969.351562-1.046875.765625-1.5 1.21875-1.832031 1.832031-2.882812 4.371094-2.882812 6.960938 0 .640624.070312 1.289062.195312 1.929687.128907.621094.316407 1.242187.5625 1.839844zm0 0"/><path d="m217.113281 236.308594c21.71875 0 39.386719-17.667969 39.386719-39.386719 0-21.714844-17.667969-39.382813-39.386719-39.382813-21.714843 0-39.382812 17.667969-39.382812 39.382813 0 21.71875 17.667969 39.386719 39.382812 39.386719zm0-59.078125c10.859375 0 19.695313 8.835937 19.695313 19.691406 0 10.859375-8.835938 19.695313-19.695313 19.695313-10.855469 0-19.691406-8.835938-19.691406-19.695313s8.835937-19.691406 19.691406-19.691406zm0 0"/><path d="m422.632812 403.859375c-.246093-.589844-.550781-1.160156-.90625-1.691406-.355468-.542969-.765624-1.046875-1.21875-1.5-.453124-.453125-.957031-.863281-1.5-1.21875-.53125-.355469-1.101562-.660157-1.703124-.90625-.589844-.246094-1.210938-.441407-1.839844-.5625-1.269532-.253907-2.582032-.253907-3.839844 0-.628906.121093-1.25.316406-1.839844.5625-.601562.246093-1.171875.550781-1.707031.90625-.539063.355469-1.042969.765625-1.496094 1.21875s-.867187.957031-1.21875 1.5c-.355469.53125-.660156 1.101562-.90625 1.691406-.246093.601563-.433593 1.222656-.5625 1.851563-.125.628906-.195312 1.277343-.195312 1.917968s.070312 1.289063.195312 1.921875c.128907.628907.316407 1.25.5625 1.839844.246094.601563.550781 1.171875.90625 1.703125.355469.542969.765625 1.046875 1.21875 1.496094.453125.453125.957031.867187 1.496094 1.222656.535156.355469 1.105469.660156 1.707031.90625.589844.246094 1.210938.441406 1.839844.5625.628906.128906 1.28125.195312 1.917969.195312.640625 0 1.292969-.066406 1.921875-.195312.628906-.121094 1.25-.316406 1.839844-.5625.601562-.246094 1.171874-.550781 1.703124-.90625.542969-.355469 1.046876-.769531 1.5-1.222656.453126-.449219.863282-.953125 1.21875-1.496094.355469-.53125.660157-1.101562.90625-1.703125.246094-.589844.445313-1.210937.5625-1.839844.128907-.632812.195313-1.28125.195313-1.921875s-.066406-1.289062-.195313-1.917968c-.117187-.628907-.316406-1.25-.5625-1.851563zm0 0"/><path d="m383.25 403.859375c-.246094-.589844-.550781-1.160156-.90625-1.691406-.355469-.542969-.769531-1.046875-1.222656-1.5s-.953125-.863281-1.496094-1.21875c-.53125-.355469-1.101562-.660157-1.691406-.90625-.601563-.246094-1.222656-.441407-1.851563-.5625-1.261719-.253907-2.570312-.253907-3.839843 0-.628907.121093-1.25.316406-1.851563.5625-.589844.246093-1.160156.550781-1.691406.90625-.542969.355469-1.046875.765625-1.496094 1.21875-.453125.453125-.867187.957031-1.222656 1.5-.355469.53125-.660157 1.101562-.90625 1.691406-.246094.601563-.441407 1.222656-.558594 1.851563-.128906.628906-.199219 1.277343-.199219 1.917968s.070313 1.289063.199219 1.921875c.117187.628907.3125 1.25.558594 1.839844.246093.601563.550781 1.171875.90625 1.703125.355469.542969.769531 1.046875 1.222656 1.496094.449219.453125.953125.867187 1.496094 1.222656.53125.355469 1.101562.660156 1.691406.90625.601563.246094 1.222656.441406 1.851563.5625.628906.128906 1.28125.195312 1.917968.195312.640625 0 1.292969-.066406 1.921875-.195312.628907-.121094 1.25-.316406 1.851563-.5625.589844-.246094 1.160156-.550781 1.691406-.90625.542969-.355469 1.042969-.769531 1.496094-1.222656.453125-.449219.867187-.953125 1.222656-1.496094.355469-.53125.660156-1.101562.90625-1.703125.246094-.589844.441406-1.210937.5625-1.839844.125-.632812.195312-1.28125.195312-1.921875s-.070312-1.289062-.195312-1.917968c-.121094-.628907-.316406-1.25-.5625-1.851563zm0 0"/><path d="m335.269531 397.785156h-167.386719c-5.4375 0-9.84375 4.410156-9.84375 9.847656s4.40625 9.84375 9.84375 9.84375h167.386719c5.4375 0 9.84375-4.40625 9.84375-9.84375 0-5.441406-4.40625-9.847656-9.84375-9.847656zm0 0"/><path d="m108.808594 378.09375c-16.289063 0-29.539063 13.25-29.539063 29.539062 0 16.285157 13.25 29.535157 29.539063 29.535157 16.285156 0 29.539062-13.25 29.539062-29.535157 0-16.289062-13.253906-29.539062-29.539062-29.539062zm0 39.382812c-5.429688 0-9.847656-4.414062-9.847656-9.84375 0-5.429687 4.417968-9.847656 9.847656-9.847656 5.429687 0 9.84375 4.417969 9.84375 9.847656 0 5.425782-4.414063 9.84375-9.84375 9.84375zm0 0"/><path d="m381.8125 302.238281c.246094.589844.550781 1.160157.90625 1.703125.363281.53125.777344 1.035156 1.230469 1.496094.453125.453125.953125.855469 1.496093 1.21875.53125.355469 1.101563.660156 1.691407.90625.601562.246094 1.222656.433594 1.851562.5625.632813.128906 1.28125.1875 1.921875.1875s1.289063-.058594 1.917969-.1875c.632813-.128906 1.25-.316406 1.839844-.5625.601562-.246094 1.175781-.550781 1.707031-.90625.539062-.363281 1.042969-.765625 1.496094-1.21875.453125-.460938.867187-.964844 1.21875-1.496094.355468-.542968.660156-1.113281.90625-1.703125.246094-.59375.433594-1.210937.5625-1.84375.128906-.640625.195312-1.277343.195312-1.929687 0-.640625-.066406-1.28125-.195312-1.917969-.128906-.632813-.316406-1.25-.5625-1.839844-.246094-.59375-.550782-1.164062-.90625-1.707031-.351563-.53125-.765625-1.042969-1.21875-1.496094-1.832032-1.832031-4.371094-2.882812-6.960938-2.882812s-5.128906 1.050781-6.960937 2.882812c-.453125.453125-.867188.964844-1.230469 1.496094-.355469.542969-.660156 1.113281-.90625 1.707031-.246094.589844-.433594 1.210938-.5625 1.839844-.125.640625-.1875 1.28125-.1875 1.917969 0 .652344.0625 1.289062.1875 1.929687.128906.632813.316406 1.25.5625 1.84375zm0 0"/></svg>