<svg viewBox="0 -2 512.00094 512" xmlns="http://www.w3.org/2000/svg" fill="#C7CBF2"><path d="m394.691406 353.339844c-20.304687 0-36.824218 16.515625-36.824218 36.820312 0 20.308594 16.519531 36.824219 36.824218 36.824219 20.304688 0 36.824219-16.515625 36.824219-36.824219 0-20.304687-16.519531-36.820312-36.824219-36.820312zm0 53.65625c-9.28125 0-16.835937-7.550782-16.835937-16.835938 0-9.28125 7.554687-16.832031 16.835937-16.832031 9.285156 0 16.835938 7.550781 16.835938 16.832031 0 9.285156-7.550782 16.835938-16.835938 16.835938zm0 0"/><path d="m190.894531 60.300781h259.359375c5.519532 0 9.996094-4.476562 9.996094-9.996093 0-5.519532-4.476562-9.992188-9.996094-9.992188h-259.359375c-5.519531 0-9.992187 4.472656-9.992187 9.992188 0 5.519531 4.472656 9.996093 9.992187 9.996093zm0 0"/><path d="m51.070312 54.128906c.25.601563.5625 1.179688.921876 1.722656.359374.546876.777343 1.058594 1.238281 1.515626.460937.460937.96875.882812 1.519531 1.25.539062.359374 1.128906.671874 1.730469.921874.597656.25 1.226562.4375 1.867187.570313.640625.128906 1.300782.1875 1.949219.1875.660156 0 1.308594-.058594 1.960937-.1875.636719-.132813 1.257813-.320313 1.867188-.570313.597656-.25 1.179688-.5625 1.71875-.921874.550781-.367188 1.058594-.789063 1.519531-1.25.46875-.457032.878907-.96875 1.25-1.515626.359375-.542968.667969-1.121093.917969-1.722656.25-.609375.441406-1.226562.570312-1.867187.128907-.648438.191407-1.308594.191407-1.957031 0-.652344-.0625-1.3125-.191407-1.949219-.128906-.640625-.320312-1.273438-.570312-1.871094-.25-.609375-.558594-1.1875-.917969-1.726563-.371093-.550781-.78125-1.0625-1.25-1.519531-.460937-.460937-.96875-.882812-1.519531-1.242187-.539062-.355469-1.121094-.667969-1.71875-.917969-.609375-.25-1.230469-.4375-1.867188-.570313-1.292968-.257812-2.621093-.257812-3.910156 0-.640625.132813-1.269531.320313-1.867187.570313-.601563.25-1.191407.5625-1.730469.917969-.550781.359375-1.058594.78125-1.519531 1.242187-.460938.457031-.878907.96875-1.238281 1.519531-.359376.539063-.671876 1.117188-.921876 1.726563-.25.601563-.4375 1.230469-.566406 1.871094-.132812.636719-.203125 1.296875-.203125 1.949219 0 .648437.070313 1.308593.203125 1.957031.128906.640625.316406 1.257812.566406 1.867187zm0 0"/><path d="m91.050781 54.128906c.25.601563.558594 1.179688.917969 1.722656.359375.546876.78125 1.058594 1.242188 1.515626 1.855468 1.871093 4.4375 2.929687 7.0625 2.929687.660156 0 1.3125-.058594 1.960937-.1875.640625-.128906 1.269531-.320313 1.867187-.570313.601563-.25 1.179688-.558593 1.71875-.917968.550782-.371094 1.0625-.792969 1.519532-1.25.460937-.460938.882812-.96875 1.25-1.519532.359375-.539062.671875-1.121093.921875-1.71875.25-.609374.4375-1.230468.566406-1.871093.132813-.648438.191406-1.308594.191406-1.957031 0-.648438-.058593-1.3125-.191406-1.949219-.128906-.640625-.316406-1.269531-.566406-1.871094-.25-.609375-.5625-1.1875-.921875-1.726563-.367188-.550781-.777344-1.058593-1.238282-1.519531-.46875-.460937-.980468-.878906-1.519531-1.238281-.550781-.359375-1.128906-.671875-1.730469-.921875-.597656-.25-1.226562-.4375-1.867187-.566406-1.289063-.261719-2.617187-.261719-3.90625 0-.640625.128906-1.269531.316406-1.871094.566406-.609375.25-1.1875.5625-1.730469.921875-.546874.359375-1.058593.777344-1.515624 1.238281-.460938.460938-.882813.96875-1.242188 1.519531-.359375.539063-.667969 1.117188-.917969 1.726563-.25.601563-.441406 1.230469-.570312 1.871094-.128907.640625-.199219 1.300781-.199219 1.949219 0 .660156.070312 1.308593.199219 1.957031.128906.640625.320312 1.269531.570312 1.867187zm0 0"/><path d="m131.027344 54.128906c.25.601563.5625 1.179688.921875 1.722656.359375.546876.777343 1.058594 1.238281 1.515626.460938.460937.96875.882812 1.519531 1.25.539063.359374 1.128907.671874 1.726563.921874.601562.25 1.230468.4375 1.871094.570313.640624.128906 1.300781.1875 1.949218.1875.648438 0 1.308594-.058594 1.957032-.1875.640624-.132813 1.261718-.320313 1.871093-.570313.597657-.25 1.179688-.5625 1.71875-.921874.550781-.367188 1.058594-.789063 1.519531-1.25.46875-.457032.878907-.96875 1.25-1.515626.359376-.542968.667969-1.121093.917969-1.722656.25-.609375.441407-1.226562.570313-1.867187.128906-.648438.1875-1.308594.1875-1.957031 0-.652344-.058594-1.3125-.1875-1.949219-.128906-.640625-.320313-1.273438-.570313-1.871094-.25-.609375-.558593-1.1875-.917969-1.726563-.371093-.550781-.78125-1.0625-1.25-1.519531-.460937-.460937-.96875-.882812-1.519531-1.242187-.539062-.355469-1.121093-.667969-1.71875-.917969-.609375-.25-1.230469-.4375-1.871093-.570313-1.289063-.257812-2.617188-.257812-3.90625 0-.640626.132813-1.269532.320313-1.871094.570313-.597656.25-1.1875.5625-1.726563.917969-.550781.359375-1.058593.78125-1.519531 1.242187-.460938.457031-.878906.96875-1.238281 1.519531-.359375.539063-.671875 1.117188-.921875 1.726563-.25.601563-.4375 1.230469-.570313 1.871094-.128906.636719-.199219 1.296875-.199219 1.949219 0 .648437.070313 1.308593.199219 1.957031.132813.640625.320313 1.257812.570313 1.867187zm0 0"/><path d="m88.953125 260.125h59.964844c5.519531 0 9.996093-4.476562 9.996093-9.996094 0-5.519531-4.476562-9.992187-9.996093-9.992187h-59.964844c-5.523437 0-9.996094 4.472656-9.996094 9.992187 0 5.519532 4.472657 9.996094 9.996094 9.996094zm0 0"/><path d="m209.886719 279.847656h-14.933594c-5.523437 0-9.996094 4.476563-9.996094 9.996094 0 5.515625 4.472657 9.992188 9.996094 9.992188h14.933594c5.519531 0 9.992187-4.476563 9.992187-9.992188 0-5.519531-4.472656-9.996094-9.992187-9.996094zm0 0"/><path d="m88.953125 299.835938h26.042969c5.519531 0 9.992187-4.476563 9.992187-9.992188 0-5.519531-4.472656-9.996094-9.992187-9.996094h-26.042969c-5.523437 0-9.996094 4.476563-9.996094 9.996094 0 5.515625 4.472657 9.992188 9.996094 9.992188zm0 0"/><path d="m162.949219 284.316406c-.359375-.550781-.777344-1.0625-1.238281-1.519531-.460938-.460937-.980469-.882813-1.519532-1.242187-.546875-.359376-1.128906-.667969-1.726562-.917969-.601563-.25-1.230469-.441407-1.871094-.570313-1.289062-.257812-2.617188-.257812-3.90625 0-.640625.128906-1.269531.320313-1.871094.570313-.597656.25-1.179687.558593-1.726562.917969-.542969.359374-1.0625.78125-1.519532 1.242187-.460937.457031-.878906.96875-1.242187 1.519531-.359375.539063-.667969 1.128906-.917969 1.726563-.25.601562-.4375 1.230469-.570312 1.867187-.128906.652344-.199219 1.300782-.199219 1.949219 0 2.628906 1.070313 5.207031 2.929687 7.066406.457032.472657.976563.878907 1.519532 1.25.546875.359375 1.128906.671875 1.726562.921875.601563.25 1.230469.4375 1.871094.566406.648438.132813 1.296875.191407 1.949219.191407.660156 0 1.308593-.0625 1.957031-.191407.640625-.128906 1.269531-.316406 1.871094-.566406.597656-.25 1.179687-.5625 1.726562-.921875.539063-.371093 1.050782-.777343 1.511719-1.25.46875-.457031.878906-.96875 1.246094-1.519531.363281-.539062.671875-1.117188.921875-1.71875.25-.609375.4375-1.238281.570312-1.867188.128906-.648437.1875-1.300781.1875-1.960937 0-.648437-.058594-1.296875-.1875-1.949219-.132812-.640625-.320312-1.269531-.570312-1.867187-.25-.597657-.558594-1.1875-.921875-1.726563zm0 0"/><path d="m88.953125 339.921875h80.953125c5.519531 0 9.996094-4.476563 9.996094-9.992187 0-5.519532-4.476563-9.996094-9.996094-9.996094h-80.953125c-5.523437 0-9.996094 4.476562-9.996094 9.996094 0 5.515624 4.472657 9.992187 9.996094 9.992187zm0 0"/><path d="m102.871094 217.21875c1.953125 1.949219 4.511718 2.925781 7.070312 2.925781 2.554688 0 5.113282-.976562 7.066406-2.925781 3.902344-3.902344 3.902344-10.230469 0-14.136719l-12.921874-12.921875 12.921874-12.921875c3.902344-3.902343 3.902344-10.230469 0-14.132812-3.902343-3.902344-10.230468-3.902344-14.136718 0l-19.988282 19.988281c-3.902343 3.902344-3.902343 10.230469 0 14.136719zm0 0"/><path d="m182.828125 217.21875c1.953125 1.949219 4.511719 2.925781 7.066406 2.925781 2.558594 0 5.117188-.976562 7.070313-2.925781l19.988281-19.988281c3.902344-3.902344 3.902344-10.230469 0-14.136719l-19.988281-19.988281c-3.90625-3.902344-10.234375-3.902344-14.136719 0-3.902344 3.902343-3.902344 10.230469 0 14.136719l12.921875 12.921874-12.921875 12.921876c-3.902344 3.902343-3.902344 10.230468 0 14.132812zm0 0"/><path d="m135.453125 219.089844c1.4375.71875 2.960937 1.058594 4.460937 1.058594 3.667969 0 7.199219-2.023438 8.949219-5.527344l19.988281-39.976563c2.46875-4.9375.46875-10.941406-4.46875-13.410156s-10.941406-.46875-13.410156 4.46875l-19.988281 39.980469c-2.46875 4.9375-.46875 10.9375 4.46875 13.40625zm0 0"/><path d="m481.886719 420.28125c8.046875 0 15.613281-3.140625 21.277343-8.824219 5.699219-5.679687 8.835938-13.242187 8.835938-21.289062 0-1.34375-.109375-2.65625-.277344-3.917969v-355.765625c0-16.808594-15.179687-30.484375-33.832031-30.484375h-444.058594c-18.65625 0-33.832031 13.675781-33.832031 30.484375v358.804687c0 16.804688 15.175781 30.480469 33.832031 30.480469h268.183594c1.816406.335938 3.65625.511719 5.484375.511719h1.847656c1.074219 3.046875 2.308594 6.023438 3.699219 8.921875l-1.308594 1.3125c-5.683593 5.683594-8.816406 13.246094-8.816406 21.300781 0 8.050782 3.132813 15.613282 8.816406 21.296875 5.691407 5.691407 13.257813 8.828125 21.300781 8.828125 8.050782 0 15.617188-3.136718 21.296876-8.828125l1.3125-1.308593c2.902343 1.390624 5.882812 2.628906 8.933593 3.703124v1.851563c0 8.0625 3.140625 15.628906 8.804688 21.261719 5.675781 5.707031 13.242187 8.851562 21.308593 8.851562 16.605469 0 30.113282-13.507812 30.113282-30.113281v-1.855469c3.046875-1.074218 6.023437-2.308594 8.921875-3.699218l1.3125 1.308593c5.679687 5.683594 13.25 8.816407 21.308593 8.816407 8.050782 0 15.617188-3.132813 21.296876-8.816407 11.738281-11.734375 11.742187-30.84375 0-42.597656l-1.3125-1.3125c1.394531-2.902344 2.628906-5.882813 3.699218-8.921875zm-448.054688-400.292969h444.054688c7.503906 0 13.84375 4.808594 13.84375 10.496094v49.738281h-471.742188v-49.738281c0-5.6875 6.339844-10.496094 13.84375-10.496094zm-13.84375 369.300781v-289.078124h471.742188v261.476562c-3.09375-1.0625-6.40625-1.644531-9.84375-1.644531h-1.851563c-1.070312-3.039063-2.304687-6.015625-3.699218-8.921875l1.3125-1.3125c5.683593-5.683594 8.816406-13.246094 8.816406-21.296875 0-8.054688-3.132813-15.617188-8.816406-21.300781-1.953126-1.953126-4.15625-3.621094-6.535157-4.957032v-172.058594c0-.097656-.015625-.191406-.015625-.289062-.007812-.179688-.011718-.359375-.027344-.535156-.015624-.164063-.035156-.324219-.054687-.484375-.019531-.160157-.042969-.316407-.070313-.472657-.03125-.171874-.066406-.339843-.109374-.503906-.035157-.148437-.070313-.296875-.113282-.441406-.046875-.167969-.097656-.332031-.152344-.492188-.050781-.148437-.101562-.292968-.160156-.4375-.058594-.152343-.121094-.304687-.191406-.453124-.066406-.148438-.136719-.296876-.214844-.445313-.070312-.136719-.144531-.273437-.21875-.40625-.085937-.152344-.175781-.300781-.269531-.445313-.082031-.125-.167969-.25-.253906-.371093-.097657-.140625-.203125-.28125-.308594-.417969-.101563-.125-.203125-.246094-.308594-.363281-.105469-.121094-.214843-.242188-.328125-.363281-.121094-.125-.25-.25-.382812-.371094-.070313-.066406-.132813-.140625-.207032-.203125-.039062-.035157-.082031-.066407-.125-.097657-.140624-.121093-.285156-.234374-.433593-.347656-.117188-.089844-.234375-.179687-.351563-.265625-.144531-.097656-.292968-.191406-.445312-.28125-.128906-.082031-.261719-.167969-.394532-.242187-.144531-.078125-.296874-.152344-.445312-.226563-.144531-.070312-.285156-.144531-.433594-.207031-.148437-.066406-.300781-.117188-.453125-.175781-.152343-.058594-.304687-.117188-.457031-.167969s-.304688-.089844-.457031-.128906c-.164063-.042969-.324219-.089844-.492188-.125-.144531-.03125-.292969-.054688-.445312-.078125-.175781-.03125-.351563-.0625-.53125-.082031-.140625-.015626-.28125-.023438-.425781-.035157-.1875-.015625-.378907-.027343-.570313-.03125-.050781 0-.097656-.007812-.152344-.007812h-410.511719c-5.519531 0-9.992187 4.476562-9.992187 9.996093v239.601563c0 5.519531 4.472656 9.996094 9.992187 9.996094h228.613282c-1.203125 3.277343-1.835938 6.777343-1.835938 10.375 0 1.394531.097656 2.765625.292969 4.160156.261719 1.878906.71875 3.695313 1.316406 5.453125h-245.15625c-7.503906 0-13.84375-4.804688-13.84375-10.492188zm396.015625-107.582031c-5.679687-5.710937-13.246094-8.855469-21.308594-8.855469-1.851562 0-3.667968.171876-5.445312.496094l-20.5-23.277344 82.375-93.425781v142.183594c-5.988281 1.042969-11.59375 3.894531-16.082031 8.382813l-1.3125 1.3125c-2.898438-1.394532-5.878907-2.628907-8.921875-3.703126v-1.855468c0-8.0625-3.140625-15.628906-8.804688-21.257813zm-104.265625 68.101563 1.308594 1.3125c-1.351563 2.820312-2.558594 5.722656-3.613281 8.683594h-37.433594l31.21875-35.410157c-1.230469 9.019531 1.605469 18.492188 8.519531 25.414063zm-39.757812-209.617188h167l-83.546875 94.757813zm70.125 109.871094-82.246094 93.289062v-186.683593zm-102.238281 109.742188h-179.269532v-219.613282h179.269532zm115.554687-94.621094 16.222656 18.421875c-2.253906 2.683593-4.054687 5.761719-5.238281 9.011719-1.210938 3.3125-1.824219 6.796874-1.824219 10.347656v1.851562c-3.050781 1.074219-6.03125 2.3125-8.933593 3.703125l-1.300782-1.300781c-5.675781-5.6875-13.242187-8.824219-21.3125-8.824219-2.667968 0-5.28125.351563-7.792968 1.015625zm117.21875 135.109375c-4.558594 0-8.542969 3.085937-9.679687 7.5-1.640626 6.386719-4.175782 12.492187-7.523438 18.148437-2.328125 3.929688-1.695312 8.933594 1.53125 12.160156l6.542969 6.542969c3.949219 3.957031 3.953125 10.386719.003906 14.335938-1.910156 1.90625-4.453125 2.957031-7.164063 2.957031-2.71875 0-5.269531-1.050781-7.175781-2.960938l-6.546875-6.542968c-3.230468-3.234375-8.242187-3.863282-12.167968-1.527344-5.621094 3.335938-11.726563 5.871094-18.152344 7.535156-4.410156 1.140625-7.488282 5.117188-7.488282 9.675782v9.242187c0 5.582031-4.542968 10.125-10.125 10.125-2.703124 0-5.238281-1.050781-7.175781-3-1.902343-1.890625-2.949219-4.421875-2.949219-7.125v-9.242187c0-4.558594-3.082031-8.539063-7.492187-9.679688-6.429687-1.660156-12.539063-4.195312-18.160156-7.53125-1.585938-.941406-3.347657-1.402344-5.097657-1.402344-2.585937 0-5.144531 1.003906-7.070312 2.929688l-6.550781 6.550781c-1.914063 1.914063-4.453125 2.96875-7.160157 2.96875-2.703124 0-5.25-1.058594-7.167968-2.972656-1.910156-1.910157-2.957032-4.453125-2.957032-7.164063 0-2.714844 1.046876-5.257812 2.957032-7.167968l6.546875-6.546876c3.230469-3.230468 3.859375-8.238281 1.527343-12.171874-3.335937-5.613282-5.871093-11.722657-7.535156-18.144532-1.140625-4.414062-5.117187-7.492187-9.675781-7.492187h-9.234375c-.777344 0-1.539062-.085938-2.285156-.253907-4.058594-.9375-7.171875-4.332031-7.746094-8.480468-.070312-.480469-.101562-.9375-.101562-1.390625 0-2.699219 1.054687-5.234375 2.988281-7.164063 1.910156-1.914062 4.449219-2.96875 7.144531-2.96875h9.234375c4.585937 0 8.585937-3.121094 9.699219-7.570312l.042968-.1875c1.664063-6.324219 4.175782-12.339844 7.46875-17.882813 2.332032-3.929687 1.707032-8.9375-1.527343-12.171875l-6.542969-6.542968c-3.949219-3.953126-3.949219-10.386719.007812-14.34375 1.894532-1.902344 4.4375-2.949219 7.15625-2.949219 2.714844 0 5.257813 1.046875 7.164063 2.960937l6.546875 6.546875c3.230469 3.230469 8.238281 3.859375 12.167969 1.523438 5.621093-3.335938 11.730469-5.871094 18.160156-7.53125 4.410156-1.140625 7.492187-5.121094 7.492187-9.675781v-9.246094c0-1.203125.207032-2.375.617188-3.496094.472656-1.304688 1.253906-2.535156 2.257812-3.566406.839844-.863282 1.8125-1.546875 2.863282-2.054688.015625-.007812.03125-.015625.046875-.023437 1.339843-.636719 2.808593-.984375 4.339843-.984375 2.703126 0 5.234376 1.050781 7.171876 3 1.902343 1.890625 2.953124 4.421875 2.953124 7.125v9.246094c0 4.554687 3.078126 8.53125 7.488282 9.675781 6.425781 1.660156 12.53125 4.195312 18.148437 7.53125 3.929688 2.335937 8.941407 1.703125 12.171875-1.523438l6.546875-6.546875c2.527344-2.527344 6.101563-3.527344 9.589844-2.671875 1.792969.433594 3.4375 1.359375 4.75 2.671875 1.90625 1.90625 2.957031 4.453125 2.957031 7.164063 0 2.710937-1.050781 5.257812-2.960937 7.164062l-6.542969 6.546875c-3.230469 3.230469-3.859375 8.234375-1.53125 12.160156 3.347656 5.65625 5.878906 11.761719 7.523438 18.148438 1.136718 4.417969 5.121093 7.503906 9.679687 7.503906h9.246094c4.964843 0 9.164062 3.546875 9.992187 8.511719.089844.507813.132813 1.039063.132813 1.621094 0 2.699219-1.050781 5.230469-2.980469 7.15625-1.910156 1.914062-4.449219 2.96875-7.144531 2.96875zm0 0"/></svg>