<svg viewBox="1 -10 511.999 511" xmlns="http://www.w3.org/2000/svg" fill="#C7CBF2"><path d="m469.917969.5h-427.835938c-23.203125 0-42.082031 18.878906-42.082031 42.082031v315.835938c0 23.203125 18.878906 42.082031 42.082031 42.082031h125.074219l-9.566406 71h-21.757813c-5.523437 0-10 4.476562-10 10s4.476563 10 10 10h240c5.523438 0 10-4.476562 10-10s-4.476562-10-10-10h-21.757812l-9.566407-71h125.40625c23.207032 0 42.085938-18.878906 42.085938-42.082031v-315.835938c0-23.203125-18.878906-42.082031-42.082031-42.082031zm-427.835938 20h427.832031c12.179688 0 22.085938 9.90625 22.085938 22.082031v277.917969h-472v-277.917969c0-12.175781 9.90625-22.082031 22.082031-22.082031zm291.8125 451h-156.125l9.566407-71h136.992187zm136.023438-91h-427.835938c-12.175781 0-22.082031-9.90625-22.082031-22.082031v-17.917969h472v17.917969c0 12.175781-9.90625 22.082031-22.082031 22.082031zm0 0"/><path d="m62.34375 300.5h386.980469c11.625 0 21.085937-9.457031 21.085937-21.082031v-217.835938c0-11.625-9.460937-21.082031-21.085937-21.082031h-386.980469c-11.625 0-21.085938 9.457031-21.085938 21.082031v217.835938c0 11.625 9.457032 21.082031 21.085938 21.082031zm203.488281-180h114v160h-114zm183.492188 160h-49.488281v-160h50.574218v158.917969c0 .59375-.488281 1.082031-1.085937 1.082031zm1.085937-218.917969v38.917969h-184.578125v-40h183.492188c.597656 0 1.085937.484375 1.085937 1.082031zm-389.152344 0c0-.597656.484376-1.082031 1.082032-1.082031h183.492187v220h-183.488281c-.601562 0-1.085938-.484375-1.085938-1.082031zm0 0"/><path d="m265.0625 356.359375c-.25-.601563-.558594-1.179687-.917969-1.730469-.359375-.539062-.78125-1.058594-1.242187-1.519531-.460938-.460937-.96875-.878906-1.519532-1.238281-.539062-.363282-1.121093-.671875-1.730468-.921875-.597656-.25-1.226563-.441407-1.867188-.570313-1.28125-.257812-2.609375-.257812-3.902344 0-.640624.128906-1.269531.320313-1.867187.570313-.613281.25-1.191406.558593-1.730469.921875-.550781.359375-1.0625.777344-1.519531 1.238281-.460937.460937-.882813.980469-1.242187 1.519531-.359376.550782-.667969 1.128906-.917969 1.730469s-.453125 1.230469-.570313 1.871094c-.132812.648437-.199218 1.300781-.199218 1.960937 0 .648438.066406 1.296875.199218 1.949219.117188.640625.320313 1.269531.570313 1.867187.25.601563.558593 1.183594.917969 1.730469.359374.542969.78125 1.050781 1.242187 1.519531.457031.460938.96875.882813 1.519531 1.242188.539063.359375 1.117188.667969 1.730469.917969.597656.25 1.226563.441406 1.867187.570312.640626.132813 1.300782.191407 1.953126.191407.648437 0 1.308593-.058594 1.949218-.191407.640625-.128906 1.269532-.320312 1.867188-.570312.609375-.25 1.191406-.558594 1.730468-.917969.550782-.359375 1.058594-.78125 1.519532-1.242188.460937-.46875.882812-.976562 1.242187-1.519531.359375-.546875.667969-1.128906.917969-1.730469.25-.597656.449219-1.226562.570312-1.867187.128907-.652344.199219-1.300781.199219-1.949219 0-.660156-.070312-1.3125-.199219-1.960937-.121093-.640625-.320312-1.269531-.570312-1.871094zm0 0"/><path d="m180.398438 130.5c0 5.523438 4.476562 10 10 10h19.332031c5.523437 0 10-4.476562 10-10s-4.476563-10-10-10h-19.332031c-5.523438 0-10 4.476562-10 10zm0 0"/><path d="m89.832031 140.5h20.566407c5.523437 0 10-4.476562 10-10s-4.476563-10-10-10h-20.566407c-5.523437 0-10 4.476562-10 10s4.480469 10 10 10zm0 0"/><path d="m89.832031 180.5h79.898438c5.523437 0 10-4.476562 10-10s-4.476563-10-10-10h-79.898438c-5.523437 0-10 4.476562-10 10s4.480469 10 10 10zm0 0"/><path d="m89.832031 100.5h100c5.523438 0 10-4.476562 10-10s-4.476562-10-10-10h-100c-5.523437 0-10 4.476562-10 10s4.480469 10 10 10zm0 0"/><path d="m89.832031 220.5h120c5.523438 0 10-4.476562 10-10s-4.476562-10-10-10h-120c-5.523437 0-10 4.476562-10 10s4.480469 10 10 10zm0 0"/><path d="m159.042969 125.28125c-.359375-.542969-.78125-1.0625-1.238281-1.523438-.460938-.457031-.972657-.878906-1.523438-1.238281-.539062-.359375-1.117188-.671875-1.726562-.921875-.601563-.25-1.230469-.4375-1.871094-.566406-1.289063-.261719-2.621094-.261719-3.910156 0-.628907.128906-1.261719.316406-1.871094.566406-.597656.25-1.179688.5625-1.71875.921875-.550782.359375-1.0625.78125-1.519532 1.238281-.460937.460938-.882812.980469-1.25 1.523438-.359374.546875-.671874 1.128906-.921874 1.726562-.25.601563-.4375 1.230469-.570313 1.871094-.128906.652344-.1875 1.300782-.1875 1.949219 0 .660156.058594 1.3125.1875 1.960937.132813.640626.320313 1.269532.570313 1.871094.25.597656.5625 1.179688.921874 1.71875.367188.550782.789063 1.0625 1.25 1.53125.457032.460938.96875.871094 1.519532 1.238282.539062.359374 1.121094.671874 1.71875.921874.609375.25 1.242187.4375 1.871094.570313.648437.128906 1.308593.1875 1.960937.1875.648437 0 1.308594-.058594 1.949219-.1875.640625-.132813 1.269531-.320313 1.871094-.570313.609374-.25 1.1875-.5625 1.726562-.921874.550781-.367188 1.0625-.777344 1.523438-1.238282.457031-.46875.878906-.980468 1.238281-1.53125.359375-.539062.671875-1.121094.921875-1.71875.25-.601562.4375-1.230468.566406-1.871094.132812-.648437.203125-1.300781.203125-1.960937 0-.648437-.070313-1.296875-.203125-1.949219-.128906-.640625-.316406-1.269531-.566406-1.871094-.25-.597656-.5625-1.179687-.921875-1.726562zm0 0"/></svg>